PathFileType	4	(X/Y/Z)	C:\Users\Basilio\Documents\Thesis Gigler\squatting_fais\c3dfiles\040\SLS_pre_front4\markers_experimental.trc
DataRate	CameraRate	NumFrames	NumMarkers	Units	OrigDataRate	OrigDataStartFrame	OrigNumFrames
200.000000	200.000000	4	62	mm	200.000000	686	1372
Frame#	Time	FHD			LBHD			RBHD			C7			T10			CLAV			LSHO			LUUPA			LMUPA			LDUPA			LLEP			LMEP			LRAD			LUL			LRFIN			RSHO			RUPA1			RMUPA			RDUPA			RLEP			RMEP			RRAD			RUL			RUFIN			LASI			RASI			USACR			LSACR			RSACR			LTHI1			LTHI2			LTHI3			LTHI4			LLFC			LMFC			LTIB1			LTIB2			LTIB3			LTIB4			LLMAL			LMMAL			LHEE			LMT1			LMT2			LMT5			RTHI			RTHI2			RTHI3			RTHI4			RLFC			RMFC			RTIB1			RTIB2			RTIB3			RTIB4			RLMAL			RMMAL			RHEE			RMT1			RMT2			RMT5			*61			
		X1	Y1	Z1	X2	Y2	Z2	X3	Y3	Z3	X4	Y4	Z4	X5	Y5	Z5	X6	Y6	Z6	X7	Y7	Z7	X8	Y8	Z8	X9	Y9	Z9	X10	Y10	Z10	X11	Y11	Z11	X12	Y12	Z12	X13	Y13	Z13	X14	Y14	Z14	X15	Y15	Z15	X16	Y16	Z16	X17	Y17	Z17	X18	Y18	Z18	X19	Y19	Z19	X20	Y20	Z20	X21	Y21	Z21	X22	Y22	Z22	X23	Y23	Z23	X24	Y24	Z24	X25	Y25	Z25	X26	Y26	Z26	X27	Y27	Z27	X28	Y28	Z28	X29	Y29	Z29	X30	Y30	Z30	X31	Y31	Z31	X32	Y32	Z32	X33	Y33	Z33	X34	Y34	Z34	X35	Y35	Z35	X36	Y36	Z36	X37	Y37	Z37	X38	Y38	Z38	X39	Y39	Z39	X40	Y40	Z40	X41	Y41	Z41	X42	Y42	Z42	X43	Y43	Z43	X44	Y44	Z44	X45	Y45	Z45	X46	Y46	Z46	X47	Y47	Z47	X48	Y48	Z48	X49	Y49	Z49	X50	Y50	Z50	X51	Y51	Z51	X52	Y52	Z52	X53	Y53	Z53	X54	Y54	Z54	X55	Y55	Z55	X56	Y56	Z56	X57	Y57	Z57	X58	Y58	Z58	X59	Y59	Z59	X60	Y60	Z60	X61	Y61	Z61	X62	Y62	Z62	

687	3.43	-169.5158843994141	1440.672241210938	-1144.500610351563	-288.0497436523438	1379.719360351563	-1190.116333007813	-340.6585998535157	1333.962280273438	-1060.377563476563	-339.6436157226563	1238.846923828125	-1109.243530273438	-472.6995849609376	965.4421997070315	-1074.447143554688	-221.7780914306641	1159.637084960938	-1113.4501953125	-270.2062988281251	1241.080200195313	-1240.332397460938	-111.4702453613282	1232.2509765625	-1309.17138671875	-87.82926177978517	1244.719848632813	-1267.168090820313	-42.84107971191407	1228.895263671875	-1304.3369140625	18.03330802917481	1211.435180664063	-1301.19580078125	12.79991722106934	1153.598999023438	-1270.983276367188	nan	nan	nan	284.8511352539063	1274.985229492188	-1236.430297851563	344.9101867675782	1296.596923828125	-1141.719970703125	-249.651840209961	1227.6201171875	-987.3547973632815	-89.55431365966798	1195.0791015625	-911.838562011719	-66.25131988525392	1220.643798828125	-947.3358154296877	-20.45984077453614	1189.559326171875	-920.9648437500002	40.93341064453126	1190.709228515625	-936.4770507812502	35.61869430541993	1130.880126953125	-983.9678955078127	281.0169372558594	1265.859252929688	-1090.563354492188	300.4838562011719	1264.130004882813	-1016.962585449219	365.5685424804688	1295.86083984375	-1105.06298828125	-348.3513183593751	768.2241821289065	-1162.295532226563	-342.5706481933594	787.865661621094	-945.0270996093752	-525.0433959960939	805.2603759765627	-1045.632080078125	-535.1198730468751	771.6793212890627	-1070.224853515625	-532.7015380859376	776.5696411132815	-1015.375061035156	-282.4888610839844	536.1481933593751	-1211.386596679688	-197.7301177978516	523.3410034179689	-1224.307739257813	-172.4217681884766	561.8885498046876	-1231.083618164063	-165.7480010986328	475.6964111328126	-1207.543090820313	-60.83895874023439	417.4944152832032	-1198.883666992188	-61.82837677001955	417.8063964843751	-1069.293579101563	-135.1079711914063	233.6554718017579	-1117.162353515625	-213.5152740478516	239.3309326171876	-1161.904663085938	-183.0648040771485	214.2758483886719	-1140.121826171875	-229.8457794189454	156.4357604980469	-1093.7587890625	-339.9944763183594	122.6454162597657	-1105.45947265625	-299.1766052246094	136.156494140625	-1022.8466796875	-411.852264404297	97.02815246582034	-1048.5234375	-197.7655944824219	54.79919815063478	-1049.668579101563	-203.4130096435547	50.89797210693361	-1096.418579101563	-261.1730041503907	38.66072082519532	-1137.824584960938	-236.6710510253907	587.3748779296876	-860.1279296875002	-172.9449615478516	575.6155395507814	-871.5059814453127	-153.4506225585938	599.7990722656251	-882.2676391601565	-135.2953491210938	500.9430541992189	-881.2685546875002	-27.6441822052002	420.8424377441407	-896.2197265625002	-27.12578773498536	413.9223632812501	-1032.05224609375	147.5819854736328	346.9810180664063	-930.6892700195315	167.5164184570313	243.8011627197266	-903.131774902344	197.9063415527344	276.9844360351563	-916.4755859375002	242.5482177734376	262.3416442871094	-951.5681762695315	305.7254028320313	152.6951446533203	-930.308776855469	299.5887451171876	172.9263458251953	-1016.95947265625	301.0243225097657	71.91907501220705	-980.9177856445315	440.8617248535157	241.8233337402344	-1008.490539550781	439.893035888672	245.2448120117188	-969.6897583007815	436.829559326172	198.8822784423829	-915.2070922851565	nan	nan	nan	
688	3.435	-169.7836151123047	1440.597900390625	-1144.560668945313	-288.0660705566407	1379.448974609375	-1190.34716796875	-340.7747802734376	1333.74853515625	-1060.640014648438	-339.5964965820313	1238.615966796875	-1109.46875	-472.4823303222657	965.1835937500002	-1074.442260742188	-221.7503509521485	1159.453735351563	-1113.553100585938	-270.2139892578126	1240.71337890625	-1240.547485351563	-111.3130950927735	1231.996459960938	-1309.289672851563	-87.33208465576173	1244.243896484375	-1267.249389648438	-42.6266212463379	1228.689208984375	-1304.410278320313	18.38889122009278	1211.345092773438	-1301.2841796875	13.02707481384278	1153.484619140625	-1270.956787109375	nan	nan	nan	285.0540466308594	1275.23095703125	-1236.467407226563	345.0304565429688	1296.7744140625	-1141.71142578125	-249.6816558837891	1227.484497070313	-987.4753417968752	-89.5040740966797	1194.968383789063	-911.879821777344	-66.2743606567383	1220.542114257813	-947.432067871094	-20.58638572692871	1189.469360351563	-921.0705566406252	40.91958618164063	1190.747680664063	-936.4563598632815	35.66522979736329	1130.693603515625	-983.8250732421877	281.0128479003907	1265.874755859375	-1090.471801757813	300.6510620117188	1264.220458984375	-1016.809143066406	365.6812133789063	1295.22998046875	-1105.019287109375	-348.0818481445313	767.9929809570314	-1162.21484375	-342.2938842773438	787.3997192382815	-945.0659790039065	-524.8065795898439	805.0222167968752	-1045.60400390625	-534.7927246093751	771.2244873046877	-1070.351684570313	-532.4992675781251	776.2583007812502	-1015.426574707031	-282.4633789062501	535.8198242187501	-1211.491821289063	-197.6437988281251	523.0294799804689	-1224.59326171875	-172.1764373779297	561.5264282226564	-1231.329223632813	-165.524887084961	475.209686279297	-1208.061157226563	-60.87357330322267	417.2816162109376	-1199.56396484375	-61.52560806274415	417.1477050781251	-1069.988037109375	-135.1148376464844	233.6525268554688	-1117.908935546875	-213.6881103515626	239.5041503906251	-1162.428588867188	-183.4136047363282	214.2303466796876	-1140.832275390625	-229.9935607910157	156.4580383300782	-1094.414184570313	-339.9869079589844	122.5436172485352	-1105.729125976563	-299.2396850585938	136.1229553222657	-1023.324157714844	-412.2503967285157	97.55466461181643	-1048.581787109375	-197.9266510009766	55.03908157348634	-1049.76953125	-203.5360870361329	50.75301742553712	-1096.474975585938	-261.2267456054688	38.41749572753907	-1137.9541015625	-236.4845428466797	587.1868286132814	-860.1614379882815	-172.780990600586	575.3986816406251	-871.5064697265627	-153.2335815429688	599.5394287109376	-882.1395263671877	-135.0951538085938	500.7940063476564	-881.3958740234377	-27.29830741882325	420.548797607422	-896.2436523437502	-26.67167854309083	413.9317321777345	-1032.099243164063	148.0430603027344	346.9440307617188	-930.7820434570315	168.2967071533203	244.0982971191407	-903.3054199218752	198.6987609863282	277.0149841308594	-916.581726074219	243.1004486083985	262.5757141113282	-951.6101074218752	306.0718994140626	152.9755554199219	-930.4497070312502	300.3710327148438	173.2696075439453	-1017.08642578125	301.9907836914063	71.88388061523439	-981.0579223632815	443.130340576172	243.6454467773438	-1009.467712402344	442.4884338378907	245.5664520263672	-969.161071777344	437.4790039062501	199.1157379150391	-915.3616333007815	nan	nan	nan	
689	3.44	-170.0074768066407	1440.438232421875	-1144.759033203125	-288.1038818359376	1379.155883789063	-1190.60009765625	-340.9089965820313	1333.514770507813	-1060.923461914063	-339.4635925292969	1238.288940429688	-1109.7197265625	-472.1701049804689	964.8294677734377	-1074.503051757813	-221.5302886962891	1159.067504882813	-1113.430297851563	-269.7507019042969	1239.98095703125	-1240.553100585938	-111.1314086914063	1231.766845703125	-1309.397338867188	-87.21144104003908	1244.001220703125	-1267.384399414063	-42.43279266357423	1228.501708984375	-1304.489868164063	18.51857948303223	1211.114135742188	-1301.290649414063	13.50524425506592	1153.221923828125	-1271.00048828125	nan	nan	nan	285.1743164062501	1275.460083007813	-1236.476928710938	345.3813781738282	1297.000122070313	-1141.756958007813	-249.6548004150391	1227.246215820313	-987.5862426757815	-89.21750640869142	1195.51513671875	-911.2632446289065	-66.29541015625001	1220.503051757813	-947.4748535156252	-20.05635833740235	1190.269775390625	-920.3676757812502	40.92698287963868	1190.721801757813	-936.4114379882815	35.68331146240235	1130.6806640625	-983.6937255859377	281.0761718750001	1265.8779296875	-1090.336059570313	300.6428527832032	1264.269775390625	-1016.690734863281	365.5770263671876	1295.392211914063	-1104.869140625	-347.8727416992188	767.7763061523439	-1162.098510742188	-341.9249877929688	787.3548583984377	-945.1040039062502	-524.4232177734376	804.7568969726565	-1045.6220703125	-534.4983520507814	770.9295043945315	-1070.431396484375	-532.1344604492189	775.899108886719	-1015.443359375	-282.3441772460938	535.5862426757814	-1211.630493164063	-197.4502563476563	522.7222290039064	-1224.929443359375	-172.0523071289063	561.2900390625001	-1231.698120117188	-165.4409790039063	474.9501037597657	-1208.3671875	-60.88959884643556	417.068817138672	-1200.108032226563	-61.17543411254884	416.9137573242189	-1070.50244140625	-135.1844177246094	233.663314819336	-1118.47314453125	-213.7448120117188	239.4653320312501	-1162.978271484375	-183.4329986572266	214.2816925048829	-1141.44384765625	-229.9486541748047	155.5519104003907	-1095.288208007813	-339.9771423339844	122.4613494873047	-1105.942504882813	-299.0664062500001	136.247055053711	-1023.77685546875	-412.457489013672	97.66877746582034	-1048.861938476563	-198.0042266845704	55.34434509277345	-1049.996459960938	-203.5579223632813	50.67720031738283	-1096.599609375	-261.3017578125001	38.27595520019532	-1138.023681640625	-236.2357177734376	586.9500122070314	-860.1389160156252	-172.5228424072266	575.1702270507814	-871.590759277344	-152.5924987792969	599.4581298828126	-881.8391113281252	-134.7920837402344	500.370574951172	-881.5944824218752	-26.97568893432618	420.2574462890626	-896.3084106445315	-26.06938552856446	414.0205993652345	-1032.143188476563	148.3375854492188	347.0978088378907	-930.7518310546877	169.0493316650391	244.0161437988282	-903.409851074219	199.3337097167969	277.0003356933594	-916.6665039062502	244.0343933105469	262.5910644531251	-951.724548339844	307.0672607421876	153.3493194580078	-930.5009765625002	301.2019042968751	173.6163177490235	-1017.161315917969	302.6879882812501	71.96368408203126	-981.294860839844	443.3171386718751	244.4993591308594	-1009.606506347656	441.7090454101564	245.9590454101563	-969.5734863281252	438.1662902832032	199.5675048828126	-915.3560180664065	nan	nan	nan	
690	3.445	-170.2884674072266	1440.355712890625	-1144.916870117188	-288.2645568847657	1378.921752929688	-1190.90869140625	-341.0287475585938	1333.416625976563	-1061.123291015625	-339.0209045410157	1238.026977539063	-1110.076904296875	-471.9362182617189	964.6070556640627	-1074.524291992188	-221.3638763427735	1158.900756835938	-1113.57568359375	-269.7135314941407	1239.792114257813	-1240.808349609375	-110.8905258178711	1231.453735351563	-1309.538452148438	-86.99069976806642	1243.8115234375	-1267.6025390625	-42.23414611816407	1228.36083984375	-1304.610961914063	18.85334968566895	1211.144897460938	-1301.376708984375	13.64836978912354	1153.2177734375	-1270.979614257813	nan	nan	nan	285.3030090332032	1275.653686523438	-1236.533447265625	345.5041198730469	1297.232666015625	-1141.671630859375	-249.5690155029297	1227.1396484375	-987.608581542969	-89.2761688232422	1195.713500976563	-911.3225097656252	-66.28636169433595	1220.517822265625	-947.5881347656252	-20.13934707641602	1190.296508789063	-920.4024047851565	40.96722793579102	1190.835815429688	-936.3491821289065	35.78219223022462	1130.649536132813	-983.567321777344	281.0715637207032	1265.95263671875	-1090.257202148438	300.7583007812501	1264.322998046875	-1016.591491699219	366.2269287109376	1294.797119140625	-1104.64013671875	-347.6506958007813	767.6357421875001	-1162.100463867188	-341.7496948242188	787.2482910156252	-945.0095214843752	-524.1879882812501	804.4644775390627	-1045.60107421875	-535.5474243164064	771.007995605469	-1070.847778320313	-531.9223632812501	775.6585083007815	-1015.475280761719	-282.1484069824219	535.4340209960939	-1211.936767578125	-197.4373779296876	522.5629882812501	-1225.370239257813	-171.9523468017578	561.0237426757814	-1232.19970703125	-165.3522491455078	474.8042602539064	-1208.672119140625	-60.65486907958986	417.1233825683595	-1200.591674804688	-60.70077514648439	417.1728820800782	-1070.942749023438	-135.2095336914063	233.4061584472657	-1119.028442382813	-213.7344818115235	239.4211578369141	-1163.446533203125	-182.9376068115235	214.2237396240235	-1142.047485351563	-229.9717102050782	155.4718170166016	-1095.801513671875	-340.6134033203126	122.9217605590821	-1106.233764648438	-299.0480957031251	136.4681549072266	-1024.16259765625	-412.2944641113282	97.50186157226565	-1048.786376953125	-198.0003204345704	55.41316223144533	-1050.149169921875	-203.6550750732422	50.60947799682619	-1096.6611328125	-261.3236389160157	38.1175651550293	-1138.09130859375	-235.6242065429688	586.6895751953126	-860.350036621094	-172.2350463867188	574.8586425781251	-871.4826660156252	-152.3702545166016	599.1751098632814	-881.8562622070315	-134.5319061279297	500.2280883789064	-881.520202636719	-26.56967544555665	420.1688842773439	-896.284118652344	-25.92216873168946	413.915252685547	-1032.153564453125	148.9564208984375	347.2649230957032	-930.7780761718752	169.5552978515625	243.9026641845704	-903.381286621094	200.0573120117188	276.9686279296876	-916.7285766601565	244.8110656738282	262.3977661132813	-951.6585083007815	308.1222229003907	153.5810241699219	-930.6550292968752	301.9933776855469	173.9045867919922	-1017.226806640625	303.4862365722657	72.37084960937501	-981.546325683594	444.5471801757814	245.0889739990235	-1009.524536132813	442.0667724609376	246.5572052001954	-969.500671386719	438.5700073242189	199.9510498046876	-915.438903808594	nan	nan	nan	
